# xmcd CD database file
#
# Track frame offsets:
#	225
#	22056
#	43636
#	62020
#	82422
#	105104
#	124107
#	143888
#	167914
#	188408
#	207650
#	230278
#	250076
#	277234
#	299376
#
# Disc length: 4306 seconds
#
# Revision: 1
# Processed by: cddbd v1.5.2PL0 Copyright (c) Steve Scherf et al.
# Submitted via: CDex 1.51
#
DISCID=e010cf0f
DTITLE=張宇 - 張宇最佳精選集
DYEAR=1900
DGENRE=Pop
TTITLE0=消息
TTITLE1=舍得
TTITLE2=都算我的
TTITLE3=曲終人散
TTITLE4=心井
TTITLE5=一言難盡
TTITLE6=愛都愛了
TTITLE7=責任
TTITLE8=用心良苦
TTITLE9=情有獨鍾
TTITLE10=這一生我只牽你的手
TTITLE11=我的快樂悲傷
TTITLE12=回頭太難
TTITLE13=愛上了你愛上了癮
TTITLE14=後悔
EXTD=
EXTT0=
EXTT1=
EXTT2=
EXTT3=
EXTT4=
EXTT5=
EXTT6=
EXTT7=
EXTT8=
EXTT9=
EXTT10=
EXTT11=
EXTT12=
EXTT13=
EXTT14=
PLAYORDER=
